<svg width="26" height="26" viewBox="0 0 26 26" fill="none" xmlns="http://www.w3.org/2000/svg">
<g clip-path="url(#clip0_1_91)">
<path d="M12.9999 15.4762C14.3675 15.4762 15.4762 14.2982 15.4762 12.8453C15.4762 11.3922 14.3675 10.2143 12.9999 10.2143C11.6324 10.2143 10.5238 11.3922 10.5238 12.8453C10.5238 14.2982 11.6324 15.4762 12.9999 15.4762Z" fill="#61DAFB"/>
<path d="M21.992 8.73336C21.5352 8.55839 21.0575 8.38341 20.5591 8.23031C20.6837 7.7054 20.7875 7.18048 20.8706 6.67743C21.3067 3.79039 20.8291 1.75634 19.5 0.968963C19.1054 0.728376 18.6694 0.619019 18.1709 0.619019C16.7173 0.619019 14.869 1.75634 13 3.65916C11.131 1.75634 9.28275 0.619019 7.82908 0.619019C7.33067 0.619019 6.89457 0.728376 6.5 0.968963C5.17093 1.77821 4.69329 3.81227 5.12939 6.67743C5.21246 7.18048 5.31629 7.7054 5.4409 8.23031C4.9425 8.38341 4.46486 8.53652 4.00798 8.73336C1.41214 9.78319 0 11.2267 0 12.8452C0 14.4638 1.43291 15.9073 4.00798 16.9571C4.46486 17.132 4.9425 17.307 5.4409 17.4601C5.31629 17.985 5.21246 18.5099 5.12939 19.013C4.69329 21.9 5.17093 23.9341 6.5 24.7214C6.89457 24.9621 7.33067 25.0714 7.82908 25.0714C9.30352 25.0714 11.1517 23.9341 13 22.0313C14.869 23.9341 16.7173 25.0714 18.1709 25.0714C18.6694 25.0714 19.1054 24.9621 19.5 24.7214C20.8291 23.9123 21.3067 21.8781 20.8706 19.013C20.7875 18.5099 20.6837 17.985 20.5591 17.4601C21.0575 17.307 21.5352 17.1539 21.992 16.9571C24.5879 15.9073 26 14.4638 26 12.8452C26 11.2267 24.5879 9.78319 21.992 8.73336ZM18.9185 2.06254C19.77 2.58746 20.0607 4.20595 19.7077 6.50247C19.6454 6.96176 19.5415 7.44293 19.4169 7.94598C18.3371 7.68353 17.1948 7.50855 15.9904 7.3992C15.2844 6.34936 14.5575 5.40888 13.8306 4.55589C15.3675 2.95927 16.925 1.86569 18.1917 1.86569C18.4617 1.86569 18.7108 1.93131 18.9185 2.06254ZM16.5927 15.0324C16.2188 15.7322 15.7827 16.4322 15.3259 17.132C14.5575 17.1976 13.7892 17.2195 13 17.2195C12.19 17.2195 11.4217 17.1976 10.6741 17.132C10.2173 16.4322 9.80192 15.7322 9.42812 15.0324C9.03354 14.3106 8.65975 13.567 8.32748 12.8452C8.65975 12.1235 9.03354 11.3798 9.42812 10.6581C9.80192 9.95817 10.238 9.25828 10.6948 8.55839C11.4633 8.49278 12.2316 8.4709 13.0208 8.4709C13.8306 8.4709 14.599 8.49278 15.3467 8.55839C15.8035 9.25828 16.2188 9.95817 16.5927 10.6581C16.9873 11.3798 17.361 12.1235 17.6933 12.8452C17.3402 13.567 16.9873 14.2887 16.5927 15.0324ZM18.3163 14.3106C18.6278 15.0761 18.877 15.8197 19.1054 16.5634C18.3994 16.7383 17.6517 16.8696 16.8627 16.9789C17.1118 16.5634 17.3818 16.1259 17.6102 15.6666C17.8594 15.2073 18.0879 14.748 18.3163 14.3106ZM13 20.2378C12.5016 19.6692 12.024 19.0567 11.5671 18.4225C12.0448 18.4443 12.5223 18.4662 13 18.4662C13.4777 18.4662 13.9552 18.4443 14.4329 18.4225C13.976 19.0567 13.4984 19.6692 13 20.2378ZM9.13738 16.9571C8.34825 16.8477 7.60064 16.7164 6.89457 16.5415C7.123 15.8197 7.37221 15.0543 7.68371 14.2887C7.91214 14.7262 8.14058 15.1855 8.38977 15.6229C8.63898 16.1041 8.88818 16.5196 9.13738 16.9571ZM7.68371 11.3798C7.37221 10.6143 7.123 9.87068 6.89457 9.12705C7.60064 8.95207 8.34825 8.82085 9.13738 8.71148C8.88818 9.12705 8.61821 9.56447 8.38977 10.0238C8.14058 10.4831 7.91214 10.9424 7.68371 11.3798ZM13 5.45263C13.4984 6.02129 13.976 6.63369 14.4329 7.26797C13.9552 7.24609 13.4777 7.22423 13 7.22423C12.5223 7.22423 12.0448 7.24609 11.5671 7.26797C12.024 6.63369 12.5016 6.02129 13 5.45263ZM17.6102 10.0457L16.8627 8.73336C17.6517 8.84272 18.3994 8.97395 19.1054 9.14892C18.877 9.87068 18.6278 10.6362 18.3163 11.4017C18.0879 10.9424 17.8594 10.4831 17.6102 10.0457ZM6.29233 6.50247C5.93929 4.20595 6.23004 2.58746 7.08147 2.06254C7.28914 1.93131 7.53834 1.86569 7.80831 1.86569C9.05431 1.86569 10.6118 2.9374 12.1694 4.55589C11.4425 5.38702 10.7156 6.34936 10.0096 7.3992C8.80511 7.50855 7.66294 7.7054 6.58306 7.94598C6.45846 7.44293 6.3754 6.96176 6.29233 6.50247ZM1.16294 12.8452C1.16294 11.8173 2.34665 10.7237 4.42333 9.91443C4.83866 9.73945 5.29552 9.58635 5.7524 9.45512C6.08467 10.5487 6.5 11.7079 6.9984 12.8671C6.5 14.0263 6.0639 15.1636 5.7524 16.2571C2.88658 15.3823 1.16294 14.07 1.16294 12.8452ZM7.08147 23.6279C6.23004 23.103 5.93929 21.4844 6.29233 19.188C6.35463 18.7287 6.45846 18.2475 6.58306 17.7444C7.66294 18.0069 8.80511 18.1818 10.0096 18.2913C10.7156 19.3411 11.4425 20.2815 12.1694 21.1346C10.6325 22.7311 9.07508 23.8247 7.80831 23.8247C7.53834 23.8247 7.28914 23.7591 7.08147 23.6279ZM19.7077 19.188C20.0607 21.4844 19.77 23.103 18.9185 23.6279C18.7108 23.7591 18.4617 23.8247 18.1917 23.8247C16.9457 23.8247 15.3882 22.753 13.8306 21.1346C14.5575 20.3034 15.2844 19.3411 15.9904 18.2913C17.1948 18.1818 18.3371 17.985 19.4169 17.7444C19.5415 18.2475 19.6246 18.7287 19.7077 19.188ZM21.5767 15.776C21.1613 15.951 20.7044 16.1041 20.2477 16.2353C19.9154 15.1417 19.5 13.9826 19.0016 12.8233C19.5 11.6642 19.9361 10.5268 20.2477 9.43325C23.1134 10.3081 24.8371 11.6205 24.8371 12.8452C24.8371 13.8731 23.6325 14.9668 21.5767 15.776Z" fill="#61DAFB"/>
</g>
<defs>
<clipPath id="clip0_1_91">
<rect width="26" height="26" fill="white"/>
</clipPath>
</defs>
</svg>
